<svg xmlns="http://www.w3.org/2000/svg" viewBox="0 0 1024 1024" width="1024" height="1024">
  <path d="M 162.00 987.50 L 139.50 968.00 L 130.50 955.00 L 120.50 934.00 L 112.50 901.00 L 111.50 880.00 L 115.50 850.00 L 124.50 821.00 L 138.50 793.00 L 138.50 786.00 L 88.50 734.00 L 46.50 672.00 L 19.50 607.00 L 7.50 549.00 L 7.50 485.00 L 14.50 442.00 L 24.50 406.00 L 50.50 349.00 L 87.50 298.00 L 116.00 270.50 L 145.00 249.50 L 175.00 233.50 L 204.00 222.50 L 233.00 215.50 L 270.00 211.50 L 310.00 213.50 L 343.00 219.50 L 400.00 239.50 L 444.00 264.50 L 498.00 307.50 L 579.00 387.50 L 609.00 412.50 L 640.00 430.50 L 654.00 434.50 L 666.00 434.50 L 679.00 428.50 L 691.50 409.00 L 694.50 395.00 L 694.50 373.00 L 690.50 357.00 L 674.00 336.50 L 627.00 302.50 L 592.50 267.00 L 569.50 228.00 L 558.50 190.00 L 557.50 150.00 L 564.50 118.00 L 581.50 84.00 L 606.00 55.50 L 638.00 32.50 L 668.00 19.50 L 688.00 14.50 L 709.00 14.50 L 719.00 18.50 L 726.50 26.00 L 729.50 35.00 L 727.50 70.00 L 732.50 92.00 L 744.50 116.00 L 774.50 158.00 L 786.00 187.50 L 812.00 170.50 L 834.00 161.50 L 857.00 157.50 L 892.00 159.50 L 923.00 157.50 L 948.00 148.50 L 976.00 127.50 L 989.00 126.50 L 999.00 131.50 L 1009.50 148.00 L 1014.50 166.00 L 1015.50 209.00 L 1006.50 247.00 L 991.50 281.00 L 968.50 314.00 L 945.00 336.50 L 907.00 359.50 L 872.00 370.50 L 863.50 380.00 L 867.50 442.00 L 864.50 535.00 L 850.50 605.00 L 829.50 664.00 L 811.50 701.00 L 788.50 739.00 L 757.50 779.00 L 720.00 817.50 L 660.00 863.50 L 621.00 885.50 L 589.50 899.00 L 592.50 906.00 L 616.50 928.00 L 624.50 941.00 L 626.50 963.00 L 619.50 979.00 L 600.00 994.50 L 562.00 1006.50 L 518.00 1007.50 L 481.00 1000.50 L 447.00 988.50 L 410.00 970.50 L 362.00 939.50 L 313.00 899.50 L 297.00 895.50 L 286.00 900.50 L 207.00 985.50 L 191.00 992.50 L 175.00 992.50 Z" fill="#043974"/>
</svg>